<?xml version="1.0" standalone="no"?>
<!DOCTYPE svg PUBLIC "-//W3C//DTD SVG 20010904//EN"
 "http://www.w3.org/TR/2001/REC-SVG-20010904/DTD/svg10.dtd">
<svg version="1.0" xmlns="http://www.w3.org/2000/svg"
 width="360.000000pt" height="360.000000pt" viewBox="0 0 360.000000 360.000000"
 preserveAspectRatio="xMidYMid meet">
<metadata>
Created by potrace 1.11, written by Peter Selinger 2001-2013
</metadata>
<g transform="translate(0.000000,360.000000) scale(0.100000,-0.100000)"
fill="#000000" stroke="none">
<path d="M871 3387 c-16 -37 -22 -57 -23 -74 -1 -7 -5 -13 -10 -13 -4 0 -8 -7
-8 -15 0 -8 -5 -15 -11 -15 -5 0 -7 -5 -4 -10 4 -6 1 -27 -6 -48 -7 -20 -14
-39 -14 -42 -1 -3 -5 -13 -9 -22 -4 -9 -9 -22 -10 -30 -2 -7 -5 -20 -9 -28
-19 -53 -58 -168 -62 -185 -6 -26 -35 -115 -45 -140 -5 -11 -19 -54 -31 -95
-11 -41 -26 -81 -31 -87 -6 -7 -8 -13 -4 -13 3 0 -1 -16 -9 -36 -8 -20 -15
-41 -15 -47 0 -20 17 7 30 46 6 20 15 35 20 32 5 -3 11 4 15 14 4 12 12 18 21
14 7 -3 14 0 14 6 0 6 4 11 10 11 5 0 7 -6 4 -14 -10 -25 12 -25 39 0 14 13
31 43 38 67 6 23 14 47 17 52 4 6 7 15 8 20 1 6 12 42 24 82 12 39 23 80 25
90 2 10 4 19 5 21 2 1 4 7 5 12 1 6 3 12 4 14 0 2 28 -2 62 -9 67 -14 196 -17
204 -5 3 4 -4 10 -15 13 -22 6 -42 47 -30 62 20 24 -15 42 -93 47 -42 3 -80 7
-82 10 -3 3 2 21 10 41 8 21 12 37 9 37 -4 0 -1 7 6 15 6 8 9 19 5 25 -3 5 -1
10 4 10 6 0 10 6 8 13 -3 16 41 14 163 -8 14 -3 43 -7 65 -10 22 -3 51 -8 65
-10 14 -3 49 -7 78 -10 30 -3 58 -7 63 -11 5 -3 9 0 9 5 0 9 -8 12 -40 14 -7
0 -41 37 -35 37 3 0 1 9 -5 20 -6 11 -7 19 -3 18 13 -5 16 6 9 30 -5 13 -16
22 -29 23 -12 0 -31 2 -42 5 -11 2 -51 6 -90 9 -38 2 -72 5 -75 6 -7 3 -17 4
-75 13 -70 11 -85 16 -85 29 0 7 -6 20 -13 29 -12 15 -15 13 -26 -15z"/>
<path d="M1536 3278 c-8 -13 -18 -35 -21 -50 -4 -16 -10 -28 -14 -28 -4 0 -15
-25 -26 -55 -10 -30 -22 -55 -27 -55 -4 0 -8 -11 -8 -25 0 -14 -4 -25 -9 -25
-5 0 -11 -10 -13 -22 -2 -19 -10 -23 -38 -24 -74 -3 -74 -3 -60 -19 11 -13 10
-14 -5 -9 -12 5 -16 4 -12 -3 4 -6 0 -24 -8 -39 -16 -31 -10 -40 36 -48 13 -3
25 -5 26 -5 1 -1 -16 -44 -39 -97 -22 -53 -42 -108 -44 -122 -18 -99 -2 -167
54 -226 38 -40 97 -62 169 -61 29 0 53 -1 53 -3 0 -2 -4 -11 -10 -21 -11 -21
-23 -81 -15 -81 5 0 39 26 67 53 17 16 18 16 18 -8 0 -29 3 -30 34 -9 19 12
39 49 36 66 0 2 10 35 23 73 13 39 27 88 31 110 13 68 87 176 141 203 36 18
113 -3 116 -31 1 -7 3 -23 4 -36 1 -13 -2 -40 -7 -60 -5 -20 -10 -43 -12 -52
-2 -8 -15 -52 -29 -97 -14 -44 -22 -83 -19 -86 3 -3 -1 -6 -8 -6 -7 0 -11 -3
-7 -6 3 -3 1 -18 -5 -33 -5 -14 -12 -35 -14 -46 -2 -11 -15 -56 -29 -99 -29
-91 -28 -86 -15 -86 6 0 10 9 10 20 0 11 5 20 10 20 6 0 15 11 21 24 7 14 17
22 24 20 7 -3 17 8 23 25 15 42 22 39 12 -4 -4 -20 -4 -35 1 -35 19 0 58 45
65 74 3 17 9 36 13 41 5 8 40 134 55 195 2 8 9 35 16 60 16 58 19 155 7 199
-9 35 -42 75 -87 104 -34 22 -114 31 -156 17 -26 -9 -38 -9 -49 0 -8 6 -19 9
-25 5 -5 -3 -10 -2 -10 3 0 5 -9 20 -21 33 -17 19 -22 21 -29 9 -6 -8 -10 -22
-10 -31 0 -25 -32 -33 -48 -12 -29 38 -33 53 -18 53 13 0 14 4 4 25 -6 14 -18
25 -27 26 -56 4 -83 7 -86 11 -2 2 10 37 26 78 19 46 26 76 20 78 -6 2 -11 8
-11 13 0 6 4 8 9 4 5 -3 12 -1 16 5 3 5 0 10 -7 11 -7 0 -4 4 7 9 11 5 14 9 7
9 -7 1 -10 5 -7 11 4 6 -1 7 -12 3 -10 -3 -15 -3 -11 2 4 4 0 14 -8 22 -8 8
-12 19 -9 24 4 5 1 9 -5 9 -7 0 -10 7 -6 15 8 22 -1 18 -18 -7z m44 -422 c19
-2 54 -4 77 -5 47 -1 47 -2 19 -81 -9 -25 -18 -52 -20 -60 -4 -15 -64 -204
-91 -285 -8 -24 -19 -39 -27 -37 -7 2 -24 5 -38 7 -14 1 -25 8 -25 14 0 7 -11
19 -25 27 -25 13 -25 14 8 8 17 -4 32 -3 32 0 0 4 -21 27 -46 51 -43 40 -47
48 -47 92 0 57 65 239 94 265 10 9 27 14 36 12 10 -2 34 -6 53 -8z"/>
<path d="M1190 3075 c-21 -56 -24 -79 -8 -73 8 3 30 -1 49 -10 32 -14 58 -22
60 -19 0 1 2 20 5 42 4 40 4 41 -41 63 -56 27 -53 27 -65 -3z"/>
<path d="M1150 2938 c0 -2 -12 -34 -25 -73 -14 -38 -27 -77 -29 -85 -2 -8 -25
-81 -50 -163 -46 -148 -55 -189 -34 -152 15 25 40 45 51 38 4 -2 15 1 23 8 12
10 13 9 8 -5 -4 -11 -1 -16 10 -16 19 0 56 34 57 53 1 14 1 17 24 111 9 39 21
79 27 90 10 18 23 61 32 106 2 8 -4 21 -13 28 -14 12 -14 13 2 8 9 -3 17 -1
17 4 0 6 -10 10 -23 10 -12 0 -30 9 -40 20 -14 17 -36 27 -37 18z"/>
<path d="M2344 2670 c-103 -28 -171 -79 -216 -165 -31 -57 -33 -180 -6 -244
41 -93 136 -180 236 -215 51 -18 136 -26 153 -15 12 8 12 9 -1 7 -30 -4 -135
14 -154 28 -11 8 -16 14 -11 14 6 1 -5 9 -24 19 -23 12 -30 21 -22 26 9 5 1
18 -26 42 l-38 35 43 -27 c23 -16 44 -26 47 -23 6 6 -29 75 -49 97 -28 31 -47
92 -45 142 3 65 37 112 103 144 44 22 62 25 124 21 59 -3 79 -9 107 -31 19
-14 35 -30 35 -34 0 -10 -25 -22 -55 -27 -73 -13 -85 -16 -85 -24 0 -6 -5 -10
-11 -10 -5 0 -7 5 -4 10 3 6 1 10 -4 10 -6 0 -11 -4 -11 -10 0 -5 -5 -10 -11
-10 -5 0 -7 5 -4 10 3 6 -5 10 -19 10 -32 0 -42 -16 -19 -29 11 -6 13 -11 5
-11 -7 0 -10 -5 -6 -12 4 -7 3 -8 -4 -4 -6 4 -22 1 -34 -6 -13 -7 -26 -12 -30
-13 -3 0 -9 -3 -13 -7 -14 -14 52 -23 175 -23 101 0 131 3 157 18 18 9 36 18
40 19 11 2 38 38 48 63 15 38 7 88 -22 128 -64 91 -213 133 -349 97z"/>
<path d="M2854 2534 c-27 -7 -52 -13 -57 -14 -4 0 -23 -16 -42 -35 -40 -42
-52 -91 -36 -145 14 -46 45 -79 138 -141 75 -51 91 -75 73 -108 -33 -64 -177
-54 -237 16 -13 14 -23 29 -24 32 0 3 -2 15 -5 26 -2 11 -5 30 -6 43 -1 12 -6
22 -10 22 -8 0 -3 -55 8 -92 3 -10 0 -18 -6 -18 -6 0 -4 -10 5 -24 12 -18 13
-26 4 -32 -9 -5 -7 -11 6 -21 26 -19 9 -16 -20 3 -20 13 -25 14 -25 2 0 -7 7
-24 16 -36 8 -12 12 -22 8 -22 -15 0 23 -34 51 -46 44 -18 160 -33 185 -24 3
1 18 4 35 6 16 3 32 8 35 12 3 4 19 15 35 24 17 10 42 39 58 70 l27 53 1 -45
c3 -69 3 -74 13 -89 5 -8 4 -16 -4 -21 -9 -6 -3 -16 21 -39 19 -17 31 -31 28
-31 -5 0 -21 12 -66 50 -22 18 -22 -6 0 -50 19 -38 29 -46 76 -62 175 -61 331
12 346 160 6 68 -36 131 -125 187 -25 16 -60 43 -79 60 l-34 32 21 21 c15 15
31 20 56 18 20 -2 39 1 42 5 3 5 15 2 27 -6 22 -14 67 -17 67 -4 0 4 -6 10
-12 13 -7 4 -3 4 10 2 19 -4 22 -1 17 12 -4 12 1 10 18 -6 26 -24 42 -29 32
-9 -4 6 2 1 14 -13 l20 -25 -6 25 c-9 35 -63 87 -115 110 -33 14 -62 19 -114
16 -150 -6 -226 -99 -177 -216 14 -32 63 -77 140 -129 73 -49 76 -53 68 -92
-8 -36 -38 -50 -105 -51 -87 -2 -163 59 -166 132 0 20 -6 45 -11 55 -6 11 -13
37 -17 58 -8 41 -77 120 -116 132 -11 4 -20 11 -20 16 0 5 -6 9 -13 9 -7 0
-29 16 -48 36 l-34 35 23 19 c22 18 72 21 154 7 18 -4 32 1 44 14 16 18 18 18
36 3 12 -11 18 -13 18 -5 0 8 5 7 16 -3 22 -22 27 -20 13 7 -16 30 -78 87
-109 99 -52 20 -117 25 -166 12z m147 -111 c12 -16 12 -17 -1 -7 -8 6 -22 14
-30 17 -13 5 -12 6 1 6 9 1 23 -7 30 -16z m34 7 c3 -5 1 -10 -4 -10 -6 0 -11
5 -11 10 0 6 2 10 4 10 3 0 8 -4 11 -10z m386 -147 c13 -17 13 -17 -6 -3 -11
8 -22 16 -24 17 -2 2 0 3 6 3 6 0 17 -8 24 -17z m-714 -269 c-3 -3 -12 -4 -19
-1 -8 3 -5 6 6 6 11 1 17 -2 13 -5z"/>
<path d="M1510 2230 c0 -11 2 -20 4 -20 2 0 6 9 9 20 3 11 1 20 -4 20 -5 0 -9
-9 -9 -20z"/>
<path d="M1828 2075 c-3 -13 -2 -22 2 -20 11 7 20 45 10 45 -4 0 -10 -11 -12
-25z"/>
<path d="M455 1677 c-29 -12 -46 -37 -24 -37 7 0 5 -10 -5 -25 -9 -14 -14 -30
-11 -34 3 -5 -1 -12 -7 -14 -8 -3 -6 -6 5 -6 21 -1 21 -2 1 -49 -9 -20 -17
-45 -19 -55 -2 -10 -11 -32 -20 -49 -8 -17 -15 -37 -15 -43 0 -7 -7 -25 -14
-41 -8 -15 -13 -31 -10 -36 3 -4 1 -8 -4 -8 -5 0 -9 -6 -9 -12 -1 -7 -12 -43
-27 -81 -14 -37 -26 -68 -25 -70 0 -1 -4 -15 -10 -30 -6 -16 -11 -34 -11 -41
0 -8 -15 -16 -32 -20 -42 -8 -138 -55 -138 -66 0 -5 15 0 34 11 19 11 48 24
65 29 25 7 31 5 36 -9 5 -16 -65 -244 -79 -258 -3 -4 -6 -10 -6 -16 0 -13 25
-3 26 11 1 7 2 18 3 26 2 20 53 71 68 68 7 -2 13 4 13 13 0 8 4 15 9 15 4 0 6
-11 3 -25 -2 -14 0 -25 4 -25 14 1 56 38 58 52 1 7 6 21 12 30 9 16 17 15 109
-16 144 -48 244 -40 314 26 24 22 33 19 38 -12 10 -67 94 -180 118 -160 9 8
24 0 56 -30 43 -40 62 -52 40 -26 -10 12 -9 13 7 9 11 -2 23 1 27 8 5 7 4 10
-2 6 -6 -4 -16 0 -22 7 -10 12 -8 13 10 9 15 -4 20 -3 15 5 -5 8 -2 10 8 6 9
-3 27 4 42 15 l27 21 -25 0 c-64 0 -144 60 -175 130 -53 118 47 273 177 276
62 2 86 -12 111 -62 16 -35 19 -54 14 -101 -3 -31 -10 -62 -15 -69 -6 -6 -7
-13 -4 -16 2 -3 -11 -57 -30 -121 -19 -63 -37 -128 -40 -144 -2 -15 -5 -30 -6
-33 -14 -39 19 -198 46 -221 8 -6 5 10 -8 43 -27 70 -33 154 -11 162 9 4 13
14 10 26 -3 11 -1 20 5 20 5 0 6 5 3 11 -4 6 0 9 11 7 13 -2 20 4 22 20 2 12
7 22 12 22 4 0 4 -16 0 -36 -9 -38 5 -43 24 -9 6 11 17 24 24 30 18 15 81 227
87 295 22 236 -178 373 -385 264 -57 -30 -78 -48 -123 -106 l-35 -47 -22 40
c-22 44 -22 46 24 92 72 75 78 228 12 327 -65 98 -143 140 -256 139 -41 0 -88
-6 -105 -12z m35 -11 c0 -2 -11 -6 -25 -8 -13 -3 -22 -1 -19 3 5 9 44 13 44 5z
m163 -118 c50 -26 91 -101 84 -150 -14 -97 -61 -144 -130 -128 -20 4 -37 4
-37 0 0 -5 -9 -8 -19 -7 -10 0 -17 6 -14 12 2 7 -3 12 -11 12 -8 0 -13 -4 -11
-8 3 -4 -3 -10 -13 -14 -16 -7 -15 -8 3 -15 11 -5 14 -9 7 -9 -8 -1 -27 -10
-44 -22 -32 -23 -45 -20 -30 8 14 26 102 283 97 283 -3 0 0 12 5 28 l10 27
-20 -25 -21 -25 12 27 c17 40 66 42 132 6z m-139 -373 c117 -31 183 -91 171
-157 -8 -41 -43 -61 -100 -54 -49 5 -188 46 -201 59 -4 3 4 43 17 87 25 90 23
88 113 65z"/>
<path d="M1636 1421 c-4 -6 -5 -11 -2 -11 2 0 -11 -32 -30 -70 -18 -39 -46
-98 -60 -133 -33 -79 -40 -86 -71 -81 -14 3 -32 -1 -41 -8 -13 -11 -15 -11 -7
2 6 11 5 12 -4 4 -6 -6 -14 -24 -17 -40 -3 -15 -10 -34 -16 -42 -14 -16 5 -32
38 -32 28 0 35 -9 24 -29 -13 -22 -52 -114 -55 -126 -2 -5 -9 -32 -17 -60 -27
-91 -10 -178 48 -238 54 -55 150 -75 249 -52 28 6 54 12 58 12 5 1 12 5 15 8
4 4 -9 5 -28 1 -63 -12 -155 -3 -145 15 7 11 -30 30 -40 21 -5 -4 -5 -2 -2 5
4 6 16 9 26 6 27 -7 35 14 11 27 -11 6 -18 15 -16 19 3 4 -6 13 -20 19 -29 14
-45 50 -38 89 3 15 7 38 9 50 2 12 9 32 16 45 7 12 11 23 9 23 -5 0 21 74 36
103 8 15 14 32 14 38 0 6 12 10 28 8 15 -1 65 -5 112 -9 47 -3 89 -11 95 -17
7 -8 6 -9 -4 -3 -11 6 -13 4 -8 -8 4 -10 1 -17 -5 -17 -6 0 -8 -3 -5 -7 4 -3
0 -14 -9 -24 -15 -17 -14 -19 12 -26 16 -4 32 -7 36 -8 16 -1 20 -17 10 -38
-41 -82 -74 -185 -78 -242 -6 -97 45 -186 125 -216 36 -14 148 -20 177 -9 23
9 54 -8 54 -30 0 -20 66 -69 113 -84 66 -21 117 -27 117 -15 0 5 -11 9 -24 9
-30 0 -86 20 -86 30 0 5 -9 12 -21 15 -12 4 -18 12 -15 21 3 7 -2 20 -10 29
-9 8 -13 21 -11 28 4 9 6 9 6 0 1 -7 10 -17 21 -23 20 -10 20 -8 19 52 -1 39
6 91 19 136 11 39 18 72 15 72 -3 0 -1 6 5 12 5 7 12 31 15 53 6 39 10 56 24
93 7 18 11 35 16 55 1 6 5 17 8 22 3 6 12 33 18 60 7 28 15 57 18 65 4 8 8 24
10 35 2 11 10 36 17 56 13 31 13 38 1 50 -11 10 -11 18 -4 29 9 13 10 12 5 -2
-8 -26 3 -22 13 5 5 13 5 27 -1 35 -12 14 -32 16 -23 2 3 -5 1 -10 -5 -10 -7
0 -10 6 -7 14 3 8 -3 23 -14 35 -11 12 -17 26 -14 31 3 6 1 10 -4 10 -6 0 -11
-3 -12 -7 -2 -19 -8 -42 -27 -93 -29 -82 -47 -144 -44 -152 1 -5 -2 -8 -7 -8
-5 0 -8 -6 -8 -12 1 -7 -5 -34 -12 -60 -21 -76 -50 -86 -84 -27 -14 26 -15 30
-2 25 19 -7 20 14 1 39 -8 12 -27 19 -55 20 -23 1 -44 4 -47 7 -3 3 7 35 22
72 14 36 23 73 20 82 -3 8 -2 12 4 9 6 -3 10 1 10 10 0 10 -5 14 -12 10 -7 -4
-4 1 6 9 16 13 17 19 8 28 -10 10 -15 10 -23 -2 -9 -13 -10 -13 -8 0 2 22 -12
60 -22 60 -5 0 -6 8 -2 18 4 11 3 14 -4 7 -6 -5 -37 -71 -69 -145 -31 -74 -62
-141 -67 -148 -5 -7 -21 -11 -36 -9 -14 3 -34 0 -43 -5 -12 -6 -18 -5 -18 2 0
6 -5 8 -11 5 -12 -8 -51 30 -41 39 3 4 0 11 -8 16 -10 7 -11 10 -2 10 14 0 16
19 3 38 -9 15 -29 20 -78 21 l-32 1 29 79 c16 43 26 82 22 85 -10 11 -11 37
-1 30 5 -3 6 -10 3 -16 -4 -7 -2 -8 4 -4 18 11 15 59 -2 53 -9 -4 -16 3 -20
19 -4 13 -11 24 -17 24 -6 0 -8 4 -5 8 2 4 1 14 -3 21 -6 9 -11 10 -15 2z
m565 -577 c4 -2 -4 -34 -17 -71 -12 -38 -34 -113 -49 -168 -15 -55 -29 -107
-32 -115 -3 -8 -5 -34 -5 -56 2 -46 -6 -53 -53 -48 -16 2 -40 5 -53 6 -17 1
-22 7 -19 20 4 13 -1 18 -14 18 -10 0 -19 4 -19 9 0 4 12 6 28 3 l27 -5 -25
29 c-14 16 -29 31 -33 32 -4 2 -17 14 -28 26 -18 18 -20 30 -15 80 3 32 11 65
17 72 6 8 9 14 5 14 -4 0 0 13 8 29 9 16 12 31 9 35 -4 3 -1 6 5 6 7 0 11 3
10 8 -2 4 5 27 15 50 l18 44 107 -7 c59 -4 110 -9 113 -11z"/>
<path d="M2610 758 c-51 -9 -136 -48 -165 -76 -29 -28 -66 -72 -60 -72 3 0 -1
-10 -10 -23 -8 -12 -16 -33 -18 -45 -2 -12 -5 -24 -8 -26 -3 -3 -4 -33 -2 -67
6 -144 123 -281 279 -327 47 -14 121 -19 131 -9 3 4 -7 7 -23 8 -30 1 -63 5
-102 14 -12 3 -32 17 -44 30 -12 14 -28 25 -36 25 -9 0 -12 6 -8 16 4 10 -6
27 -27 46 l-32 31 39 -26 c42 -28 68 -26 42 2 -9 10 -16 23 -16 30 0 6 -10 22
-21 34 -68 70 -70 186 -6 256 73 79 253 84 315 8 24 -29 -32 -48 -148 -51 -30
0 -61 -7 -68 -13 -12 -12 -8 -17 11 -14 4 0 7 -4 7 -9 0 -6 -7 -10 -15 -10 -8
0 -30 -9 -49 -19 -19 -11 -37 -17 -42 -13 -4 4 -4 2 -1 -5 9 -15 74 -26 177
-28 133 -3 213 28 244 92 22 47 20 79 -9 129 -53 90 -194 138 -335 112z m87
-244 c-3 -3 -12 -4 -19 -1 -8 3 -5 6 6 6 11 1 17 -2 13 -5z"/>
<path d="M910 713 c0 -4 14 -16 30 -25 39 -22 39 -15 0 12 -16 12 -30 18 -30
13z"/>
</g>
</svg>
